<svg xmlns="http://www.w3.org/2000/svg" width="21.61" height="21.606" viewBox="0 0 21.61 21.606"><path d="M10.8,6.382a5.539,5.539,0,1,0,5.539,5.539A5.531,5.531,0,0,0,10.8,6.382Zm0,9.141a3.6,3.6,0,1,1,3.6-3.6A3.608,3.608,0,0,1,10.8,15.523Zm7.058-9.367a1.292,1.292,0,1,1-1.292-1.292A1.289,1.289,0,0,1,17.863,6.156Zm3.669,1.311A6.394,6.394,0,0,0,19.786,2.94a6.436,6.436,0,0,0-4.527-1.745c-1.784-.1-7.13-.1-8.914,0a6.427,6.427,0,0,0-4.527,1.74A6.415,6.415,0,0,0,.073,7.462c-.1,1.784-.1,7.13,0,8.914A6.394,6.394,0,0,0,1.818,20.9a6.444,6.444,0,0,0,4.527,1.745c1.784.1,7.13.1,8.914,0A6.394,6.394,0,0,0,19.786,20.9a6.436,6.436,0,0,0,1.745-4.527c.1-1.784.1-7.126,0-8.909Zm-2.3,10.823a3.646,3.646,0,0,1-2.054,2.054c-1.422.564-4.8.434-6.369.434s-4.951.125-6.368-.434A3.646,3.646,0,0,1,2.383,18.29c-.564-1.422-.434-4.8-.434-6.369s-.125-4.951.434-6.369A3.646,3.646,0,0,1,4.436,3.5c1.422-.564,4.8-.434,6.368-.434s4.951-.125,6.369.434a3.646,3.646,0,0,1,2.054,2.054c.564,1.422.434,4.8.434,6.369S19.791,16.873,19.227,18.29Z" transform="translate(0.003 -1.119)" fill="#db0f10"/></svg>