<?xml version="1.0" encoding="utf-8"?>
<!-- Generator: Adobe Illustrator 13.0.0, SVG Export Plug-In . SVG Version: 6.00 Build 14948)  -->
<!DOCTYPE svg PUBLIC "-//W3C//DTD SVG 1.1//EN" "http://www.w3.org/Graphics/SVG/1.1/DTD/svg11.dtd">
<svg version="1.1" id="color_pos" xmlns="http://www.w3.org/2000/svg" xmlns:xlink="http://www.w3.org/1999/xlink" x="0px" y="0px"
	 width="453.67px" height="157.943px" viewBox="71.64 343.502 453.67 157.943"
	 enable-background="new 71.64 343.502 453.67 157.943" xml:space="preserve">
<polygon fill="#F03714" points="141.214,501.1 209.248,461.821 209.205,446.285 154.799,477.696 154.752,462.044 209.162,430.63 
	209.116,414.965 154.707,446.38 154.664,430.715 209.07,399.3 209.028,383.638 209.004,383.652 209.009,383.648 209.031,383.635 
	141.431,344.352 141.429,344.353 141.428,344.352 73.391,383.635 73.614,461.817 87.041,469.621 86.863,407.102 100.409,414.971 
	100.585,477.492 114.127,485.361 113.95,422.84 127.492,430.709 127.669,493.229 141.206,501.096 141.208,501.104 141.213,501.1 
	141.214,501.101 "/>
<g>
	<g>
		<path fill="#6E695F" d="M291.096,407.663h7.556v37.513h-6.925v-27.509l-14.225,16.935l-14.281-16.935v27.509h-6.879v-37.513h7.505
			l13.655,16.257L291.096,407.663z"/>
		<path fill="#6E695F" d="M339.321,414.536h-27.565v8.442h22.199v6.883h-22.199v8.441h27.565v6.874h-34.494v-37.514h34.494V414.536
			L339.321,414.536z"/>
		<path fill="#6E695F" d="M378.321,407.663h7.555v37.513h-6.934v-27.509l-14.226,16.935l-14.276-16.935v27.509h-6.878v-37.513h7.505
			l13.649,16.257L378.321,407.663z"/>
		<path fill="#6E695F" d="M426.541,414.536h-27.56v8.442h22.193v6.883h-22.193v8.441h27.56v6.874h-34.494v-37.514h34.494V414.536z"
			/>
		<path fill="#6E695F" d="M462.206,407.663c4.012,0,7.291,3.228,7.291,7.24v23.033c0,4.012-3.279,7.24-7.291,7.24h-30.222v-37.514
			H462.206z M462.567,414.903c0-0.204-0.158-0.367-0.361-0.367h-22.982c-0.209,0-0.366,0.163-0.366,0.367v23.033
			c0,0.209,0.157,0.366,0.366,0.366h22.982c0.203,0,0.361-0.157,0.361-0.366V414.903z"/>
		<path fill="#6E695F" d="M475.413,407.663h6.873v37.513h-6.873V407.663z"/>
		<path fill="#6E695F" d="M517.152,407.663c4.012,0,7.296,3.228,7.296,7.24v30.273h-6.93V432.57h-23.71v12.606h-6.878v-30.273
			c0-4.013,3.228-7.24,7.239-7.24H517.152L517.152,407.663z M517.519,425.691v-10.788c0-0.204-0.157-0.367-0.366-0.367H494.17
			c-0.203,0-0.361,0.163-0.361,0.367v10.788H517.519z"/>
	</g>
</g>
</svg>
