<?xml version="1.0" encoding="utf-8"?>
<!-- Generator: Adobe Illustrator 24.1.2, SVG Export Plug-In . SVG Version: 6.00 Build 0)  -->
<svg version="1.1" id="Ebene_1" xmlns="http://www.w3.org/2000/svg" xmlns:xlink="http://www.w3.org/1999/xlink" x="0px" y="0px"
	 viewBox="0 0 250 100" style="enable-background:new 0 0 250 100;" xml:space="preserve">
<style type="text/css">
	.st0{fill:#1A1A28;}
</style>
<g>
	<g>
		<g>
			<path class="st0" d="M68.8,56.7c-1.2-1.2-1.8-2.9-1.8-5.2v-9.6h3.5v9.8c0,1.3,0.3,2.3,0.9,3s1.5,1,2.6,1s2-0.3,2.6-1
				s0.9-1.7,0.9-3v-9.8H81v9.6c0,2.3-0.6,4-1.8,5.2c-1.2,1.2-3,1.8-5.2,1.8C71.8,58.4,70,57.9,68.8,56.7z"/>
			<path class="st0" d="M100.8,51.4v-9.6h3.4v16.3L93.4,49v9.2H90V41.9L100.8,51.4z"/>
			<path class="st0" d="M113.3,58.2V41.9h3.6v16.3H113.3z"/>
			<path class="st0" d="M137,41.9h3.7l-8.8,16.3l0,0L123,41.9h3.8l5.1,9.9L137,41.9z"/>
			<path class="st0" d="M146.8,58.2V41.9H158v2.8h-7.7v3.8h7.3v2.8h-7.3v4.1h7.7v2.8C158,58.2,146.8,58.2,146.8,58.2z"/>
			<path class="st0" d="M180.5,58.2h-3.9l-2.8-5.2c-0.2-0.4-0.5-0.7-0.8-0.9s-0.7-0.3-1.2-0.3H170v6.4h-3.6V41.9h7.5
				c1.9,0,3.4,0.4,4.3,1.3c1,0.8,1.5,2.1,1.5,3.7c0,1.2-0.3,2.3-1,3.1s-1.7,1.4-2.9,1.6c0.8,0.2,1.6,0.8,2.2,1.8L180.5,58.2z
				 M175.6,48.6c0.5-0.4,0.7-0.9,0.7-1.7s-0.2-1.4-0.7-1.7c-0.5-0.4-1.2-0.5-2.2-0.5h-3.5v4.5h3.5C174.3,49.1,175.1,49,175.6,48.6z"
				/>
			<path class="st0" d="M194.9,44.7h-7.1v-2.9H200l-7,13.5h7v2.9h-12.2L194.9,44.7z"/>
			<path class="st0" d="M208.2,58.2V41.9h11.3v2.8h-7.7v3.8h7.3v2.8h-7.3v4.1h7.7v2.8C219.5,58.2,208.2,58.2,208.2,58.2z"/>
		</g>
		<path class="st0" d="M229.6,57.9c-1.1-0.3-2.1-0.8-2.8-1.4l1.1-2.5c1.5,1.1,3.3,1.6,5.2,1.6c1,0,1.8-0.2,2.3-0.5s0.8-0.8,0.8-1.4
			c0-0.5-0.2-0.9-0.7-1.2s-1.4-0.6-2.6-0.8c-1.4-0.3-2.5-0.6-3.4-1c-0.8-0.4-1.5-0.9-1.8-1.5c-0.4-0.6-0.6-1.3-0.6-2.2
			c0-1,0.3-1.8,0.8-2.6s1.3-1.4,2.3-1.8c1-0.4,2.1-0.6,3.4-0.6c1.1,0,2.2,0.2,3.3,0.5s1.9,0.8,2.5,1.3l-1.1,2.5
			c-1.5-1.1-3-1.6-4.6-1.6c-0.9,0-1.7,0.2-2.2,0.5c-0.5,0.4-0.8,0.8-0.8,1.5c0,0.4,0.1,0.7,0.3,0.9s0.5,0.4,1,0.6
			c0.5,0.2,1.2,0.4,2,0.6c2.1,0.5,3.5,1,4.5,1.8c0.9,0.7,1.4,1.7,1.4,3c0,1.5-0.6,2.7-1.8,3.6c-1.2,0.9-2.8,1.3-4.9,1.3
			C231.9,58.4,230.7,58.2,229.6,57.9z"/>
	</g>
	<g>
		<g>
			<line class="st0" x1="38.8" y1="54.3" x2="38.8" y2="54.4"/>
			<line class="st0" x1="38.8" y1="54.4" x2="38.8" y2="54.4"/>
		</g>
		<g>
			<line class="st0" x1="41.9" y1="57.2" x2="41.9" y2="57.2"/>
			<line class="st0" x1="41.9" y1="57.2" x2="42" y2="57.2"/>
		</g>
		<g>
			<g>
				<g>
					<path class="st0" d="M18.6,44.6c0-1.7,0.8-3.4,2.1-4.6c0.7-0.6,1.5-1,2.3-1.2c0.4-0.1,0.9-0.2,1.3-0.2s0.9,0,1.3,0
						c-0.4,0.1-0.8,0.1-1.2,0.2c-0.4,0.1-0.8,0.2-1.2,0.4c-0.8,0.3-1.5,0.7-2.1,1.2s-1.1,1.2-1.5,1.9C19.1,43,18.8,43.8,18.6,44.6z"
						/>
					<circle class="st0" cx="27.6" cy="38.7" r="0.5"/>
					<g>
						<g>
							<path class="st0" d="M51.4,46.1c-0.1-1.4-0.3-2.7-0.7-4c-0.1-0.2-0.1-0.5-0.2-0.7c-1.9-6-6.5-10.8-12.5-12.7
								c-2.4-0.7-4.9-1-7.3-0.7c-7.6,0.9-14.1,6.1-15.9,13.4c-1.6,6.3-2.2,13.2,1.4,18.7c3.8,5.9,6.5,6.2,11.4,7.5
								c2.8,0.8,6.7,0.6,9.5,0c4.6-0.9,10.7-3.3,13-10C51.3,53.8,51.6,49.9,51.4,46.1z M49.5,49.5c-0.5,5.9-4.6,11-10.3,12.7
								c-3.9,1.1-8.1,1.3-12.1,0.5c-5.8-1.2-10.1-6-10.9-11.9c-0.6-4.2-0.3-9.2,3.1-12.8c13.7-4.4,28.6,0,28.6,0
								C49.4,42.6,49.7,46.4,49.5,49.5z"/>
							<path class="st0" d="M12.7,56.6c-2-1-3.2-2.3-3.3-4.2c-0.1-2.3-0.1-4.6,0-6.9c0.1-1.7,1.2-2.9,3-4
								C11.5,46.7,11.6,51.5,12.7,56.6z"/>
							<path class="st0" d="M42,23.4"/>
						</g>
						<path class="st0" d="M52.2,56.6c2-1,3.2-2.3,3.3-4.2c0.1-2.3,0.1-4.6,0-6.9c-0.1-1.7-1.2-2.9-3-4
							C53.4,46.7,53.3,51.5,52.2,56.6z"/>
						<path class="st0" d="M52,59.2c-1.6,8.1-9.5,11.6-19,11.6c-9.6,0-17.8-3.6-19.4-11.6c-0.2,1-0.3,2-0.3,3.1
							c0,9.5,9,14.7,19.8,14.7c10.7,0,19.4-5.2,19.4-14.7C52.4,61.2,52.2,60.2,52,59.2z M20.1,69.6c0,0,1.1,2.2,7.3,4.2
							C27.4,73.8,19.6,74.4,20.1,69.6z M31.2,74.5c-0.4,0-0.7-0.3-0.7-0.7c0-0.4,0.3-0.7,0.7-0.7s0.7,0.3,0.7,0.7
							C31.9,74.2,31.6,74.5,31.2,74.5z M35.5,74.5c-0.4,0-0.7-0.3-0.7-0.7c0-0.4,0.3-0.7,0.7-0.7s0.7,0.3,0.7,0.7
							S35.9,74.5,35.5,74.5z M39.1,73.8c6.7-2.4,7.3-4.2,7.3-4.2C46.8,74.4,39.1,73.8,39.1,73.8z"/>
					</g>
				</g>
				<g>
					<path class="st0" d="M24.6,61.9c0,0,7.3-2.1,15.5,0c8.1,2.1-13.2,4-13.2,4L24.6,61.9z"/>
					<g>
						<g id="header_x5F_mensch_6_" transform="translate(52.376) rotate(14)">
							<g id="Beine_x5F_header_6_" transform="translate(44.404 139.201)">
								<path id="Bein_x5F_links_x5F_header_6_" class="st0" d="M-49.3-81.5L-49.3-81.5c0.1,1,0.3,2.4,0.3,2.6c0,0.1,0,0.7,0.1,1.3
									l0,0c0.1,0.9,0.2,1.9,0.2,1.9H-49c-0.1-0.6-0.5-1.1-0.6-1.6v-0.1c0-0.1,0-0.2-0.1-0.3v-0.1c0,0.1,0,0.3,0,0.4l0,0
									c0.1,0.9,0.2,1.9,0.2,1.9h-0.3c-0.1-0.6-0.5-1.1-0.6-1.6v-0.1c0-0.1,0-0.2-0.1-0.3c-0.1-0.7-0.2-1.7-0.2-1.7l-0.6-1.9
									l-0.2-0.5c0,0-0.5-0.8-0.6-1.2c0-0.1-0.2-0.2-0.2-0.4l2.4-0.6c0.1,0.2,0.1,0.3,0.2,0.5C-49.6-82.9-49.3-81.9-49.3-81.5z"/>
								<path id="Bein_x5F_rechts_x5F_header_6_" class="st0" d="M-49.5-75.7l-0.3,0.1c-0.6-1.5-0.6-1.8-0.6-1.8l-0.3-1.9l-0.5-1.8
									l-0.4-0.9c-0.3-0.5-0.4-0.9-0.4-0.9l1.9-0.3l0.2,1c0,0,0.2,1.4,0.2,2s0,2.4,0,2.4L-49.5-75.7z"/>
							</g>
							<path id="Schuh_x5F_header_x5F_links_6_" class="st0" d="M-4.4,63.4l0.1,0.2l0.6,0.1l-1,0.2v-0.5H-4.4z"/>
							<path id="Schuh_x5F_header_x5F_rechts_6_" class="st0" d="M-5.2,63.6l0.1,0.2l0.6,0.1l-1,0.2v-0.5H-5.2z"/>
							<g id="linker_x5F_arm_x5F_header_6_">
								<path id="hand_x5F_oben_x5F_header_6_" class="st0" d="M-4.3,50.1l0.2-0.3c0,0,0.1-0.2,0.1-0.3l0.1-0.1l0.1-0.2
									c0-0.1,0.1,0,0.1,0.1s0,0.1,0,0.2c0,0,0.2,0,0.2,0.1c0,0-0.1,0.3-0.2,0.4l-0.2,0.2L-4,50.5C-4.2,50.3-4.2,50.2-4.3,50.1z
									 M-3.7,49.7L-3.7,49.7v-0.2l0,0v-0.1v-0.1l0.1,0.2L-3.7,49.7z"/>
								<path id="Arm_x5F_header_6_" class="st0" d="M-6.6,51.5c0.4-0.1,1.3-0.1,1.3-0.1l1-1.3l0.3,0.2c0,0-0.6,1.6-0.9,1.9
									c-0.3,0.3-1.2,0.5-1.5,0.7C-6.6,52.4-6.5,52-6.6,51.5z"/>
							</g>
							<path id="Körper_6_" class="st0" d="M-8,56.1l0.3,0.3l2.4-0.5v-0.3l0.1-0.1c0.1-0.1,0.1-0.2,0-0.3l-0.6-0.8L-6,52.1
								c0.4-0.7,0.3-0.9-1.6-0.6c-0.2,0-0.4,0.1-0.5,0.2c-0.1,0.2-0.5,1.1-0.5,1.2c0,0.2,0.3,2.2,0.3,2.2S-8.1,56-8,56.1z"/>
							<g id="rechter-Arm_x5F_header_6_" transform="translate(65.131 65.022)">
								<g id="Hand_mit_Buch_6_" transform="translate(0 32.756)">
									<path id="Pfad_16_6_" class="st0" d="M-72.8-43.3l0.2-0.8l-0.6-0.1v0.5L-72.8-43.3z"/>
									<g id="Gruppe_15_6_">
										<path id="Pfad_15_6_" class="st0" d="M-72.7-43.4l0.3-0.1l0.1-0.9l-0.3,0.4L-72.7-43.4z"/>
									</g>
									<path id="Pfad_58_6_" class="st0" d="M-72.6-44.1l-0.6-0.1v-0.1L-72.6-44.1l0.3-0.4L-72.6-44.1z"/>
									<path id="Pfad_17_6_" class="st0" d="M-73.6-42.7c0,0,0.5-0.2,0.5-0.3c0.1,0,0.4-0.1,0.4-0.2c0-0.1,0.2,0,0.1-0.1
										c0,0,0-0.1-0.1-0.1c0,0,0,0,0-0.1l-0.1-0.1l0.1-0.1l-0.1-0.1l-0.5,0.2l-0.1-0.2c-0.1,0-0.2,0.3-0.2,0.3l-0.2,0.3
										L-73.6-42.7z"/>
								</g>
								<g id="Gruppe_4_6_" transform="translate(7.521)">
									<path id="Pfad_6_6_" class="st0" d="M-80.9-11.3l0.2,1.3c0,0-0.8,0.6-1.1,0.4c-0.3-0.2,0-2.5,0-2.7c0.1-0.2,1-1.1,1.2-1.2
										L-80.9-11.3z"/>
								</g>
							</g>
							<g id="Kopf_x5F_header_6_" transform="translate(52.477 31.541)">
								<g id="Gruppe_19_6_" transform="translate(0 3.235)">
									<g id="Gruppe_18_6_">
										<path id="Pfad_18_6_" class="st0" d="M-60,17.1L-60,17.1L-60,17.1c-0.3,0-0.5-0.2-0.5-0.4v-0.1c-0.5-0.4-0.7-0.5-0.9-0.9
											c-0.1-0.4,0.7-0.9,1.1-0.8c0.2,0,0.2,0.1,0.4,0.5c0,0.1,0.3,0.2,0.4,0.3c0,0-0.1,0-0.1,0.1c0.1,0.2,0.2,0.4,0.2,0.5
											s-0.2,0.2-0.2,0.2v0.4C-59.7,16.9-59.8,17-60,17.1z"/>
									</g>
								</g>
								<g id="Gruppe_20_6_" transform="translate(4.819)">
									<path id="Pfad_19_6_" class="st0" d="M-66.3,18.7c0.2-0.3,1.3-1.1,1.4-0.8c0.1,0.3-0.3,0.6-0.3,0.6c0.1,0.2,0,0.4,0,0.4
										l0.3,0.4v0.1c0,0-0.6-0.6-0.8-0.3c-0.1,0.3,0.3,0.4,0.3,0.4V20C-66,19.5-66.5,19-66.3,18.7z"/>
								</g>
							</g>
							<path id="Pfad_75_6_" class="st0" d="M-4.7,64v0.1l0.9-0.2c0,0,0.1,0,0.1-0.1l-0.1-0.1L-4.7,64z"/>
							<path id="Pfad_76_6_" class="st0" d="M-5.5,64.1L-5.5,64.1c0,0.1,0.8-0.1,0.9-0.1s0.1,0,0.1-0.1l-0.1-0.1L-5.5,64.1z"/>
						</g>
						<g id="Astronaut_6_">
							<g id="Gruppe_252_6_" transform="translate(-598.999 -29.678)">
								<circle id="Ellipse_60_6_" class="st0" cx="631.6" cy="76.4" r="0.7"/>
								<path id="Pfad_262_6_" class="st0" d="M631.5,76c0,0.1,0,0.3,0.1,0.3l0.1,0.1v0.1c-0.1,0.1-0.2,0-0.2,0.1v0.1l0.2,0.3
									c-0.2-0.1-0.5-0.1-0.7-0.2s-0.4-0.3-0.4-0.6c0-0.2,0-0.3,0.1-0.4s0.2-0.3,0.3-0.4s0.1-0.1,0.2-0.1c0.1,0,0.2-0.1,0.3-0.1
									h0.2h0.1l0,0c0.1,0,0.2,0.2,0.1,0.3l-0.1,0.1C631.6,75.8,631.5,75.9,631.5,76z"/>
							</g>
							<g>
								<path class="st0" d="M31.3,47.2l0.6,1.3c0,0,0.4,0.2,2.2-0.4l-0.7-0.5L31.3,47.2z"/>
								<path class="st0" d="M32.6,46.8L32.6,46.8c0-0.2-0.1-0.2-0.2-0.2l0.2-1h-0.1h-0.1c-0.1,0-0.2,0-0.3,0.1
									c-0.6,0.3-0.9,1-0.7,1.6s1,0.9,1.6,0.7c0.4-0.2,0.7-0.6,0.7-1L32.6,46.8z"/>
							</g>
						</g>
					</g>
					<circle class="st0" cx="37.5" cy="38.7" r="0.2"/>
					<circle class="st0" cx="45.1" cy="44.5" r="0.7"/>
					<circle class="st0" cx="22" cy="51.8" r="1.1"/>
					<circle class="st0" cx="28.1" cy="44.6" r="0.4"/>
					<circle class="st0" cx="26.6" cy="49.2" r="0.2"/>
					<circle class="st0" cx="35.7" cy="55.8" r="0.2"/>
					<circle class="st0" cx="29.1" cy="60.2" r="0.2"/>
				</g>
			</g>
			<circle class="st0" cx="37.1" cy="46.5" r="0.5"/>
		</g>
	</g>
</g>
</svg>
