<svg xmlns="http://www.w3.org/2000/svg" width="464" height="330.304" viewBox="0 0 464 330.304"><defs><style>.a{fill:none;}.b{fill:#db0f10;}</style></defs><g transform="translate(-653.447 -650.249)"><g transform="translate(746.439 650.249)"><path class="a" d="M808.29,679.292l9.037,5.864v129.7H806.841V684.535H756.679V814.849H746.206l-.621-164.6H806.85c6.964,0,10.486,3.794,10.486,11.314v11.865Zm-51.532-17.729v12.279h50.153V661.562Z" transform="translate(-745.582 -650.249)"/><path class="b" d="M748.114,652.772l.6,159.554h5.444V682.012h53.686l-.931-.6-3.262-2.117,3.262-2.117,1.248-.81h-53.93V659.039h55.2v16.5l5.369-3.484v-10.5c0-3.084-.659-5.359-1.958-6.76-1.267-1.365-3.23-2.029-6-2.029H748.114M809.365,683V812.328H814.8v-125.8L809.365,683m-63.783-32.748h61.26c6.964,0,10.486,3.794,10.486,11.313v11.865l-9.037,5.864,9.037,5.864v129.7H806.842V684.535H756.684V814.849H746.2Zm61.329,23.593v-12.28H756.758v12.28Z" transform="translate(-745.582 -650.249)"/></g><g transform="translate(828.601 709.094)"><path class="a" d="M873.639,814.428H863.567l-.5-71.039h-25.18l.5,71.039h-11.1l-.294-95.391c0-6.964,3.657-10.486,10.969-10.486h24.56c7.037,0,10.555,3.794,10.555,11.313l.505,94.562ZM863.066,719.8H837.882v12.279h25.18Z" transform="translate(-826.987 -708.552)"/><path class="b" d="M871.035,811.9l-.488-92.026v-.013c0-3.086-.66-5.36-1.962-6.756-1.275-1.369-3.261-2.034-6.071-2.034H837.956c-2.963,0-5.144.649-6.481,1.93-1.3,1.248-1.964,3.276-1.964,6.029l.286,92.87h6.046l-.482-68.5-.019-2.542h30.231l.018,2.505.483,68.533h4.963m-35.676-94.631h30.231V719.8l0,12.279V734.6H835.359V717.274m38.279,97.154H863.567l-.5-71.038H837.882l.5,71.038h-11.1l-.293-95.391c0-6.964,3.656-10.486,10.969-10.486h24.559c7.037,0,10.556,3.794,10.556,11.313l.5,94.562ZM837.882,719.8v12.28h25.18l0-12.28Z" transform="translate(-826.987 -708.552)"/></g><g transform="translate(885.515 709.232)"><path class="a" d="M883.376,719.38c0-7.106,3.725-10.692,11.313-10.692h24.49V719.38h-24.9v12.486h17.315v11.313H894.276v71.126H883.79Z" transform="translate(-883.376 -708.688)"/><path class="b" d="M894.689,711.211c-3.1,0-5.376.669-6.765,1.989-1.363,1.294-2.025,3.314-2.026,6.177l.4,92.406h5.451V740.657h17.316V734.39H891.753V716.857h24.9v-5.646H894.689m0-2.523h24.49V719.38h-24.9v12.486h17.315v11.313H894.276v71.126H883.79l-.414-94.925C883.376,712.275,887.1,708.688,894.689,708.688Z" transform="translate(-883.376 -708.688)"/></g><g transform="translate(931.665 709.094)"><path class="a" d="M975.391,814.308H965.32V743.39H940.14v70.918H929.1l.207-95.27c0-6.964,3.657-10.486,10.969-10.486h24.559c7.037,0,10.556,3.794,10.556,11.313ZM965.32,719.8H940.14v12.279h25.18Z" transform="translate(-929.1 -708.552)"/><path class="b" d="M972.868,811.785V719.865c0-3.086-.66-5.36-1.963-6.756-1.275-1.369-3.26-2.034-6.07-2.034H940.278c-2.964,0-5.145.649-6.482,1.93-1.3,1.248-1.964,3.277-1.964,6.031v.005l-.2,92.742h5.987V740.867h30.226v70.918h5.026m-35.251-94.511h30.226V734.6H937.617V717.273m37.775,97.034H965.32V743.39H940.14v70.918H929.1l.207-95.27c0-6.964,3.656-10.486,10.969-10.486h24.559c7.037,0,10.556,3.794,10.556,11.313ZM940.14,719.8v12.279h25.18V719.8Z" transform="translate(-929.1 -708.552)"/></g><g transform="translate(989.063 709.094)"><path class="a" d="M985.969,708.552h34.216v11.313h-23.8v23.973l38.291-.707v11.313l-38.291.706v48.464h23.8v11.313H985.969Z" transform="translate(-985.969 -708.552)"/><path class="b" d="M988.492,711.076v101.33h29.17v-6.267h-23.8V752.674l2.477-.046,35.816-.657V745.7l-35.724.657-2.57.047V717.342h23.8v-6.266h-29.17m-2.523-2.524h34.217v11.313h-23.8v23.973l38.293-.7v11.313l-38.293.7v48.464h23.8v11.313H985.969Z" transform="translate(-985.969 -708.552)"/></g><g transform="translate(1035.35 673.843)"><path class="a" d="M1031.83,673.625h10.486V803.388h11.866V814.7H1031.83Z" transform="translate(-1031.83 -673.625)"/><path class="b" d="M1034.353,676.148v136.03h17.309v-6.267h-11.869V676.148h-5.44m-2.523-2.523h10.486V803.388h11.87V814.7H1031.83Z" transform="translate(-1031.83 -673.625)"/></g><g transform="translate(653.447 816.022)"><path class="a" d="M664.622,884.859v83.2h61.053V860.508c-7.105-.138-16.488-.2-28.215-.275-11.658-.069-22.557-.069-32.631-.069-7.105,0-10.692-3.518-10.692-10.624V825.532c0-7.381,3.587-11.038,10.692-11.038h60.635c7.105,0,10.692,3.793,10.692,11.383v11.8H725.674v-12H664.622v23.8h60.225c7.519,0,11.313,3.794,11.313,11.313V968.333c0,3.518-.759,6.14-2.346,7.933-1.514,1.793-4.071,2.691-7.588,2.691H664.76c-7.519,0-11.313-3.587-11.313-10.693q0-26.18.2-43.944c.138-11.8.207-32.216.275-39.464Z" transform="translate(-653.447 -814.494)"/><path class="b" d="M664.829,817.017c-2.834,0-4.92.668-6.2,1.986-1.306,1.344-1.968,3.541-1.968,6.528V849.54c0,2.832.651,4.912,1.934,6.184s3.382,1.917,6.235,1.917c10.314,0,20.979,0,32.646.069,12.742.074,21.45.143,28.249.275l2.474.048V970.579H662.1v-83.2h-5.666c-.02,2.745-.04,6.386-.063,10.439-.048,8.579-.108,19.258-.193,26.53-.137,11.748-.207,26.522-.207,43.914,0,2.815.689,4.894,2.047,6.177,1.4,1.322,3.667,1.992,6.743,1.992h61.467c2.75,0,4.654-.6,5.66-1.8l.018-.022.019-.021c1.153-1.3,1.713-3.351,1.713-6.262V860.784c0-3.048-.705-5.3-2.1-6.692s-3.644-2.1-6.692-2.1H662.1V823.146h66.1v12h5.439v-9.273c0-3.11-.671-5.4-2-6.809a5.784,5.784,0,0,0-2.349-1.485,11.529,11.529,0,0,0-3.824-.566H664.829m0-2.523h60.639c7.105,0,10.692,3.793,10.692,11.383v11.8H725.674v-12H664.622v23.8h60.225c7.519,0,11.313,3.794,11.313,11.313V968.333c0,3.518-.759,6.14-2.346,7.933-1.514,1.794-4.07,2.691-7.588,2.691H664.76c-7.519,0-11.313-3.587-11.313-10.693q0-26.18.206-43.944c.138-11.8.207-32.216.276-39.464l10.693,0v83.2h61.053V860.508c-7.105-.138-16.488-.206-28.215-.275-11.658-.069-22.558-.069-32.631-.069-7.105,0-10.692-3.518-10.692-10.624V825.532C654.136,818.151,657.723,814.494,664.829,814.494Z" transform="translate(-653.447 -814.494)"/></g><g transform="translate(748.164 874.729)"><path class="a" d="M793.649,978.416H783.577V907.5H758.393v70.918h-11.1l.2-95.271c0-6.964,3.657-10.485,10.969-10.485h24.567c7.037,0,10.555,3.794,10.555,11.313v94.443ZM783.577,883.9H758.393v12.279h25.18Z" transform="translate(-747.291 -872.66)"/><path class="b" d="M791.058,975.892V883.973c0-3.085-.66-5.359-1.962-6.756-1.275-1.369-3.26-2.034-6.07-2.034H758.467c-2.964,0-5.145.649-6.482,1.931-1.3,1.247-1.964,3.277-1.964,6.031v.006l-.2,92.741h6.051V904.975H786.1v70.918h4.958M755.87,881.381H786.1v2.524l0,12.279v2.522H755.87V881.381m37.779,97.035h0Zm-.068,0h-10V907.5H758.393v70.918h-11.1l.207-95.271c0-6.964,3.657-10.485,10.969-10.485h24.559c7.037,0,10.555,3.794,10.555,11.313ZM758.393,883.9v12.279h25.18l0-12.279Z" transform="translate(-747.291 -872.66)"/></g><g transform="translate(805.629 839.477)"><path class="a" d="M804.226,837.733h10.486V967.5h187.78v11.313H804.226Z" transform="translate(-804.226 -837.733)"/><path class="b" d="M806.75,840.256V976.286H999.968v-6.267H812.189V840.256H806.75m-2.524-2.523h10.486V967.5h187.776v11.313H804.226Z" transform="translate(-804.226 -837.733)"/></g><g transform="translate(827.36 874.729)"><path class="a" d="M826.377,872.66h47.876v22.558l-37.459,39.8v6.412h37.459v11.313H826.377l-.62-22.351L864.664,891.9v-7.865H826.377Z" transform="translate(-825.757 -872.66)"/><path class="b" d="M828.9,875.183v6.337h38.287v11.44l-.749.741-38.13,37.724.523,18.8h42.9v-6.267h-37.46v-9.94l.686-.729,36.774-39.076V875.183H828.9m-2.524-2.523h47.876v22.558l-37.459,39.8v6.416h37.459v11.313H826.377l-.62-22.351,38.907-38.494v-7.864H826.377Z" transform="translate(-825.757 -872.66)"/></g><g transform="translate(886.826 874.66)"><path class="a" d="M895.713,883.9v68.71H884.675l.207-68.71c0-7.519,3.587-11.313,10.693-11.313h37.183c7.175,0,10.693,3.794,10.693,11.313v68.71H932.965V883.9H919.44v56.637H908.958V883.9Z" transform="translate(-884.675 -872.591)"/><path class="b" d="M895.575,875.115c-2.815,0-4.893.689-6.177,2.047-1.322,1.4-1.992,3.668-1.992,6.743v.008l-.2,66.179h5.983v-68.71h18.292v56.637h5.436V881.382h18.571v68.71h5.439V883.905c0-3.088-.663-5.357-1.97-6.747s-3.32-2.043-6.2-2.043H895.575m0-2.523h37.183c7.175,0,10.693,3.794,10.693,11.313v68.711H932.965V883.905H919.44v56.637H908.958V883.905H895.713v68.711H884.675l.207-68.711C884.882,876.386,888.469,872.592,895.575,872.592Z" transform="translate(-884.675 -872.591)"/></g><g transform="translate(957.468 874.729)"><path class="a" d="M1001.027,954.615H990.956V907.5H965.767v47.117h-11.1l.207-71.47c0-6.965,3.657-10.486,10.969-10.486H990.4c7.037,0,10.556,3.794,10.556,11.313v70.642ZM990.951,883.9H965.767v12.279h25.18Z" transform="translate(-954.665 -872.66)"/><path class="b" d="M998.432,952.092V883.973c0-3.085-.66-5.359-1.962-6.756-1.274-1.369-3.26-2.034-6.07-2.034H965.841c-2.964,0-5.144.649-6.482,1.931-1.3,1.247-1.965,3.277-1.965,6.031v.007l-.2,68.94h6.049V904.975h30.231v47.117h4.958m-35.189-70.711h30.232v2.524l0,12.279,0,2.522H963.244V881.381m37.784,73.234h0Zm-.071,0H990.951V907.5H965.767v47.117h-11.1l.207-71.47c0-6.964,3.657-10.485,10.969-10.485H990.4c7.037,0,10.556,3.794,10.556,11.313ZM965.767,883.9v12.279h25.18l0-12.279Z" transform="translate(-954.665 -872.66)"/></g><g transform="translate(1014.311 874.728)"><path class="a" d="M1057.348,978.416h-10.072V883.9h-25.184v94.512h-10.486l-.621-105.756h35.729c7.037,0,10.556,3.794,10.556,11.313v94.443Z" transform="translate(-1010.985 -872.659)"/><path class="b" d="M1054.753,975.892V883.973c0-3.085-.656-5.359-1.958-6.756-1.282-1.369-3.27-2.034-6.076-2.034h-33.2l.6,100.709h5.45V881.381H1049.8v94.511h4.956m2.594,2.523h-10.073V883.9h-25.182v94.511h-10.487l-.615-105.756h35.729c7.035,0,10.557,3.794,10.557,11.313v94.442Z" transform="translate(-1010.985 -872.659)"/></g><g transform="translate(1071.089 874.728)"><path class="a" d="M1113.6,978.416h-10.071V883.9h-25.184v94.512h-10.482l-.62-105.756h35.729c7.037,0,10.556,3.794,10.556,11.313v94.443Z" transform="translate(-1067.239 -872.659)"/><path class="b" d="M1111,975.892V883.973c0-3.085-.656-5.359-1.957-6.756-1.283-1.369-3.26-2.034-6.076-2.034h-33.2l.6,100.709h5.451V881.381h30.229v94.511H1111m2.594,2.523h-10.073V883.9h-25.182v94.511h-10.487l-.615-105.756h35.729c7.035,0,10.558,3.794,10.558,11.313v94.442Z" transform="translate(-1067.239 -872.659)"/></g></g></svg>