<svg xmlns="http://www.w3.org/2000/svg" width="24.849" height="20.183" viewBox="0 0 24.849 20.183"><path d="M22.295,6.72c.016.221.016.442.016.662A14.391,14.391,0,0,1,7.82,21.873,14.391,14.391,0,0,1,0,19.586a10.535,10.535,0,0,0,1.23.063,10.2,10.2,0,0,0,6.323-2.176,5.1,5.1,0,0,1-4.762-3.532,6.422,6.422,0,0,0,.962.079,5.386,5.386,0,0,0,1.34-.173,5.094,5.094,0,0,1-4.084-5V8.786a5.129,5.129,0,0,0,2.3.646A5.1,5.1,0,0,1,1.734,2.621a14.476,14.476,0,0,0,10.5,5.329,5.749,5.749,0,0,1-.126-1.167A5.1,5.1,0,0,1,20.923,3.3a10.026,10.026,0,0,0,3.232-1.23,5.079,5.079,0,0,1-2.239,2.807,10.209,10.209,0,0,0,2.933-.788A10.948,10.948,0,0,1,22.295,6.72Z" transform="translate(0 -1.69)" fill="#db0f10"/></svg>