<svg xmlns="http://www.w3.org/2000/svg" width="59.818" height="42.061" viewBox="0 0 59.818 42.061"><path d="M59.093,8.831A7.516,7.516,0,0,0,53.8,3.508C49.139,2.25,30.434,2.25,30.434,2.25s-18.705,0-23.37,1.258A7.516,7.516,0,0,0,1.775,8.831C.525,13.526.525,23.323.525,23.323s0,9.8,1.25,14.492a7.4,7.4,0,0,0,5.289,5.238c4.665,1.258,23.37,1.258,23.37,1.258s18.705,0,23.37-1.258a7.4,7.4,0,0,0,5.289-5.238c1.25-4.7,1.25-14.492,1.25-14.492s0-9.8-1.25-14.492ZM24.316,32.217V14.428L39.95,23.323,24.316,32.217Z" transform="translate(-0.525 -2.25)" fill="#fff"/></svg>