<svg xmlns="http://www.w3.org/2000/svg" width="56.455" height="45.853" viewBox="0 0 56.455 45.853"><path d="M50.652,13.118c.036.5.036,1,.036,1.5,0,15.3-11.642,32.921-32.92,32.921A32.7,32.7,0,0,1,0,42.349a23.935,23.935,0,0,0,2.794.143,23.172,23.172,0,0,0,14.364-4.943A11.591,11.591,0,0,1,6.34,29.525a14.59,14.59,0,0,0,2.185.179,12.237,12.237,0,0,0,3.045-.394A11.572,11.572,0,0,1,2.292,17.954v-.143a11.652,11.652,0,0,0,5.23,1.469A11.588,11.588,0,0,1,3.94,3.8,32.888,32.888,0,0,0,27.8,15.912a13.062,13.062,0,0,1-.287-2.651A11.581,11.581,0,0,1,47.535,5.344,22.78,22.78,0,0,0,54.878,2.55a11.539,11.539,0,0,1-5.087,6.376,23.2,23.2,0,0,0,6.663-1.791,24.872,24.872,0,0,1-5.8,5.982Z" transform="translate(0 -1.69)" fill="#fff"/></svg>