<svg xmlns="http://www.w3.org/2000/svg" width="49.096" height="49.086" viewBox="0 0 49.096 49.086"><path d="M24.551,13.077A12.585,12.585,0,1,0,37.136,25.662,12.565,12.565,0,0,0,24.551,13.077Zm0,20.767a8.182,8.182,0,1,1,8.182-8.182,8.2,8.2,0,0,1-8.182,8.182ZM40.586,12.562a2.935,2.935,0,1,1-2.935-2.935A2.929,2.929,0,0,1,40.586,12.562Zm8.335,2.979c-.186-3.932-1.084-7.415-3.965-10.285S38.6,1.489,34.672,1.291c-4.053-.23-16.2-.23-20.252,0-3.921.186-7.4,1.084-10.285,3.954S.367,11.6.17,15.53c-.23,4.053-.23,16.2,0,20.252C.356,39.715,1.254,43.2,4.135,46.068s6.353,3.768,10.285,3.965c4.053.23,16.2.23,20.252,0,3.932-.186,7.415-1.084,10.285-3.965s3.768-6.353,3.965-10.285c.23-4.053.23-16.189,0-20.241Zm-5.235,24.59A8.284,8.284,0,0,1,39.02,44.8c-3.231,1.282-10.9.986-14.469.986S13.3,46.068,10.082,44.8a8.284,8.284,0,0,1-4.666-4.666c-1.281-3.231-.986-10.9-.986-14.469s-.285-11.249.986-14.469a8.284,8.284,0,0,1,4.666-4.666c3.231-1.282,10.9-.986,14.469-.986S35.8,5.256,39.02,6.527a8.284,8.284,0,0,1,4.666,4.666c1.281,3.231.986,10.9.986,14.469S44.967,36.911,43.686,40.131Z" transform="translate(0.003 -1.119)" fill="#fff"/></svg>